<?xml version="1.0" encoding="utf-8"?>
<!-- Generator: Adobe Illustrator 17.0.2, SVG Export Plug-In . SVG Version: 6.00 Build 0)  -->
<!DOCTYPE svg PUBLIC "-//W3C//DTD SVG 1.1//EN" "http://www.w3.org/Graphics/SVG/1.1/DTD/svg11.dtd">
<svg version="1.1" id="Calque_1" xmlns="http://www.w3.org/2000/svg" xmlns:xlink="http://www.w3.org/1999/xlink" x="0px" y="0px"
	 width="500px" height="500px" viewBox="0 0 500 500" enable-background="new 0 0 500 500" xml:space="preserve">
<path fill="#23AF50" d="M382.385,228.436v-4.006h14.661v43.47h-14.661v-7.245c-2.131,4.773-6.733,8.523-12.955,8.523
	c-9.717,0-18.752-7.33-18.752-23.099c0-14.66,9.035-22.929,19.604-22.929C374.799,223.15,379.573,225.367,382.385,228.436z
	 M366.02,246.079c0,4.688,3.069,8.268,7.757,8.268c3.665,0,8.608-2.812,8.608-9.12v-4.177c-2.557-2.045-5.796-3.579-9.034-3.579
	C369.089,237.471,366.02,241.477,366.02,246.079z"/>
<path fill="#23AF50" d="M434.827,224.43v11.507h-11.421v12.188c0,4.177,1.875,6.818,5.028,6.818c2.728,0,4.773-0.597,6.904-1.875
	v11.422c-1.875,2.472-5.881,4.688-11.507,4.688c-8.097,0-15.087-5.796-15.087-15.684v-17.558h-7.33v-8.95
	c5.541-1.449,11.592-6.223,14.149-15.343h7.842v12.786H434.827z"/>
<path fill="#FF4E50" d="M156.286,225.745l-9.231,14.39c-0.505-0.138-2.455-0.886-3.072-1.045c-3.88-1-7.075,2.643-9.035,6.478
	v22.332h-14.661v-43.47h14.661v7.756c2.728-4.603,7.181-8.608,12.636-8.608C149.459,223.577,154.838,224.977,156.286,225.745z"/>
<path fill="#FF4E50" d="M200.473,246.164c0,13.382-11.763,23.014-23.866,23.014s-23.866-9.632-23.866-23.014
	s11.762-23.014,23.866-23.014S200.473,232.782,200.473,246.164z M168.51,246.164c0,7.416,4.943,8.95,8.097,8.95
	s8.098-1.534,8.098-8.95c0-7.415-4.944-8.949-8.098-8.949S168.51,238.749,168.51,246.164z"/>
<path fill="#FF4E50" d="M246.586,250.512c0,11.762-8.694,18.666-20.797,18.666s-20.797-6.904-20.797-18.666V224.43h14.66
	l0.085,22.161c0,5.966,1.705,8.523,6.052,8.523c4.347,0,6.052-2.558,6.052-8.523l0.085-22.161h14.661V250.512z"/>
<path fill="#FF4E50" d="M297.456,246.25c0,14.66-9.035,22.928-19.604,22.928c-4.518,0-9.291-2.216-12.104-5.284v24.463h-14.66
	V224.43h14.66v7.244c2.131-4.772,6.733-8.523,12.956-8.523C288.42,223.15,297.456,230.481,297.456,246.25z M265.748,247.102v4.177
	c2.557,2.046,5.796,3.58,9.035,3.58c4.262,0,7.33-4.006,7.33-8.608c0-4.688-3.068-8.269-7.757-8.269
	C270.691,237.981,265.748,240.795,265.748,247.102z"/>
<path fill="#FF4E50" d="M113.822,247.449c-0.441-0.31-0.854-0.466-1.242-0.466h-11.268c-0.57,0-0.997,0.162-1.281,0.486
	c-0.285,0.324-0.427,0.732-0.427,1.222v10.173c-1.009,0.208-1.961,0.375-2.853,0.505c-0.893,0.129-1.793,0.194-2.699,0.194
	c-2.149,0-4.115-0.401-5.901-1.203c-1.786-0.802-3.319-1.896-4.601-3.281c-1.281-1.384-2.285-3.009-3.009-4.873
	c-0.725-1.864-1.087-3.856-1.087-5.979c0-2.123,0.362-4.122,1.087-5.999c0.724-1.877,1.728-3.514,3.009-4.912
	c1.281-1.397,2.815-2.504,4.601-3.319c1.786-0.816,3.753-1.223,5.901-1.223c1.709,0,3.313,0.259,4.814,0.777
	c1.501,0.518,2.912,1.242,4.232,2.174c0.569,0.363,1.022,0.473,1.359,0.33c0.336-0.142,0.673-0.421,1.01-0.835l6.29-9.085
	c0.336-0.544,0.388-1.029,0.155-1.456c-0.233-0.427-0.57-0.77-1.009-1.029c-2.433-1.631-5.028-2.879-7.785-3.747
	c-2.756-0.867-5.688-1.301-8.794-1.301c-2.744,0-5.377,0.356-7.901,1.068c-2.524,0.712-4.886,1.708-7.086,2.99
	c-2.2,1.281-4.2,2.828-5.998,4.64c-1.799,1.812-3.346,3.824-4.64,6.037c-1.295,2.213-2.29,4.581-2.989,7.105
	c-0.699,2.524-1.048,5.158-1.048,7.901c0,2.744,0.349,5.377,1.048,7.901c0.228,0.822,0.498,1.619,0.789,2.404
	c-0.055-0.127-0.119-0.249-0.172-0.377c8.508,18.742,27.925,34.085,27.925,34.085s11.75-7.971,19.927-19.896
	c0.02-0.029,0.035-0.06,0.053-0.09c0.084-0.143,0.169-0.285,0.252-0.429v-0.459v-1.967v-16.825
	C114.482,248.174,114.262,247.76,113.822,247.449z"/>
<path fill="#23AF50" d="M346.201,249.965c0.202-1.237,0.312-2.505,0.312-3.801c0-12.71-10.095-23.014-22.548-23.014
	c-12.453,0-22.548,10.304-22.548,23.014c0,12.71,10.095,23.014,22.548,23.014c7.987,0,14.999-4.242,19.004-10.635l-10.928-6.308
	l0.003-0.019c-0.809,2.965-4.838,4.169-8.462,4.169c-4.118,0-7.47-2.846-7.667-6.42h15.334H346.201z M323.582,235.801
	c4.118,0,7.47,2.846,7.667,6.42h-15.334C316.113,238.648,319.464,235.801,323.582,235.801z"/>
</svg>
