<?xml version="1.0" encoding="utf-8"?>
<!-- Generator: Adobe Illustrator 17.0.0, SVG Export Plug-In . SVG Version: 6.00 Build 0)  -->
<!DOCTYPE svg PUBLIC "-//W3C//DTD SVG 1.1//EN" "http://www.w3.org/Graphics/SVG/1.1/DTD/svg11.dtd">
<svg version="1.1" id="Calque_1" xmlns="http://www.w3.org/2000/svg" xmlns:xlink="http://www.w3.org/1999/xlink" x="0px" y="0px"
	 width="1000px" height="200px" viewBox="0 0 1000 200" enable-background="new 0 0 1000 200" xml:space="preserve">
<g>
	<g>
		<path fill="#E67E22" d="M289.174,60.335c-2.201-1.6-4.238-3-6.113-4.2c-1.875-1.2-3.763-2.187-5.662-2.963
			c-1.901-0.774-3.913-1.361-6.038-1.762c-2.126-0.4-4.538-0.6-7.238-0.6c-2.6,0-4.85,0.5-6.75,1.5
			c-1.9,1.001-3.625,2.276-5.175,3.825c-1.55,1.55-3.013,3.238-4.388,5.062c-1.375,1.826-2.812,3.562-4.312,5.212
			c-0.101-0.25-0.312-0.788-0.637-1.613c-0.326-0.825-0.664-1.699-1.013-2.625c-0.35-0.924-0.675-1.774-0.975-2.55
			c-0.3-0.774-0.5-1.262-0.6-1.462c-0.401-0.7-0.738-1.399-1.013-2.1c-0.275-0.7-0.6-1.324-0.975-1.875
			c-0.375-0.55-0.838-1-1.387-1.35c-0.551-0.349-1.301-0.525-2.25-0.525h-11.325c-1.4,0-2.75,0.425-4.05,1.275
			c-0.551,0.45-1.013,1.063-1.388,1.837c-0.375,0.776-0.562,1.588-0.562,2.438v83.924c0,3.852,1.95,5.775,5.85,5.775h16.875
			c2.149,0,3.687-0.487,4.612-1.463c0.925-0.975,1.388-2.411,1.388-4.312V87.485c1.05-1.699,2.1-3.25,3.15-4.65
			c1.05-1.399,2.175-2.599,3.375-3.6c1.2-1,2.537-1.774,4.013-2.325c1.474-0.55,3.188-0.825,5.137-0.825
			c2.85,0,5.387,0.513,7.613,1.538c2.224,1.025,4.412,2.587,6.562,4.688c1.699,0.8,3.274,1.025,4.725,0.675
			c1.45-0.349,2.674-1.275,3.675-2.775l6.825-11.625C293.273,64.936,292.624,62.186,289.174,60.335z M203.375,97.985
			c-0.851-0.6-1.65-0.9-2.4-0.9h-20.4c-1.1,0-1.925,0.313-2.475,0.938c-0.551,0.626-0.825,1.414-0.825,2.363v19.649
			c-1.95,0.401-3.788,0.726-5.513,0.976c-1.725,0.251-3.463,0.375-5.212,0.375c-4.151,0-7.95-0.774-11.4-2.325
			c-3.45-1.549-6.413-3.662-8.888-6.338c-2.475-2.674-4.413-5.812-5.812-9.412c-1.4-3.6-2.1-7.449-2.1-11.549
			c0-4.1,0.7-7.962,2.1-11.588c1.399-3.625,3.337-6.787,5.812-9.487s5.438-4.837,8.888-6.413c3.45-1.575,7.249-2.362,11.4-2.362
			c3.3,0,6.399,0.5,9.3,1.5c2.899,1,5.625,2.4,8.175,4.2c1.099,0.701,1.975,0.913,2.625,0.638c0.649-0.274,1.299-0.812,1.95-1.612
			l12.15-17.55c0.649-1.05,0.75-1.987,0.3-2.812c-0.45-0.825-1.101-1.487-1.95-1.987c-4.7-3.15-9.712-5.562-15.037-7.238
			c-5.325-1.674-10.988-2.512-16.988-2.512c-5.3,0-10.387,0.688-15.262,2.062c-2.749,0.776-5.388,1.746-7.939,2.871
			c1.201,4.248,0.254,8.817-2.845,11.726c-1.426,1.339-3.133,2.155-4.936,2.483c0.31,3.289-0.431,6.39-2.368,8.732
			c-2.302,2.785-5.839,3.969-9.688,3.633c-0.614,1.524-1.458,2.969-2.543,4.278c-2.495,3.008-5.833,4.799-9.364,5.341
			c-0.106,0.356-0.231,0.701-0.33,1.06c-1.35,4.875-2.025,9.963-2.025,15.262c0,5.301,0.675,10.387,2.025,15.262
			s3.274,9.426,5.775,13.65c2.5,4.226,5.487,8.075,8.962,11.55c3.475,3.476,7.337,6.463,11.588,8.962
			c4.249,2.501,8.812,4.426,13.688,5.775s9.962,2.025,15.262,2.025c3,0,6.087-0.188,9.263-0.562
			c3.174-0.375,6.312-0.938,9.413-1.688c3.1-0.75,6.075-1.699,8.925-2.851c2.85-1.149,5.449-2.524,7.8-4.125
			c1.45-0.85,2.175-1.95,2.175-3.3v-36.299C204.65,99.385,204.225,98.585,203.375,97.985z M371.56,65.022
			c-4.425-4.425-9.626-7.899-15.6-10.425c-5.975-2.524-12.363-3.788-19.163-3.788c-4.601,0-9.013,0.575-13.237,1.725
			c-4.226,1.151-8.163,2.775-11.812,4.875c-3.65,2.1-6.963,4.638-9.938,7.612c-2.976,2.976-5.525,6.275-7.65,9.9
			c-2.126,3.626-3.776,7.563-4.95,11.812c-1.175,4.25-1.762,8.676-1.762,13.275c0,4.6,0.587,9.012,1.762,13.237
			c1.174,4.226,2.824,8.163,4.95,11.812c2.125,3.65,4.674,6.963,7.65,9.938c2.974,2.976,6.287,5.525,9.938,7.65
			c3.649,2.125,7.587,3.763,11.812,4.912c4.225,1.149,8.637,1.725,13.237,1.725c4.549,0,8.912-0.575,13.088-1.725
			c4.174-1.149,8.087-2.787,11.737-4.912c3.649-2.125,6.962-4.675,9.938-7.65c2.974-2.975,5.524-6.287,7.65-9.938
			c2.125-3.649,3.775-7.587,4.95-11.812c1.174-4.225,1.762-8.637,1.762-13.237c0-6.949-1.288-13.412-3.862-19.388
			C379.484,74.648,375.985,69.448,371.56,65.022z M356.26,109.272c-0.975,2.876-2.375,5.362-4.2,7.462
			c-1.826,2.101-4.05,3.763-6.675,4.987c-2.625,1.227-5.563,1.838-8.812,1.838c-3.351,0-6.363-0.611-9.038-1.838
			c-2.675-1.225-4.95-2.887-6.825-4.987c-1.875-2.1-3.326-4.586-4.35-7.462c-1.025-2.875-1.537-5.963-1.537-9.262
			c0-3.199,0.512-6.25,1.537-9.15c1.024-2.899,2.475-5.449,4.35-7.65c1.875-2.2,4.15-3.938,6.825-5.212
			c2.674-1.275,5.687-1.913,9.038-1.913c3.25,0,6.188,0.638,8.812,1.913s4.849,3.013,6.675,5.212c1.825,2.201,3.225,4.751,4.2,7.65
			c0.975,2.9,1.462,5.951,1.462,9.15C357.723,103.31,357.235,106.397,356.26,109.272z M583.433,65.022
			c-4.176-4.425-9.15-7.899-14.926-10.425c-5.773-2.524-12.088-3.788-18.938-3.788c-3.898,0-7.199,0.5-9.898,1.5
			c-2.701,1.001-5.025,2.263-6.977,3.788c-1.949,1.526-3.637,3.225-5.062,5.1c-1.424,1.875-2.838,3.712-4.236,5.512l-3.15-9.075
			c-0.25-0.799-0.514-1.538-0.787-2.213c-0.275-0.675-0.613-1.275-1.013-1.8c-0.401-0.525-0.913-0.938-1.538-1.237
			c-0.626-0.3-1.413-0.45-2.362-0.45H503.22c-0.65,0-1.325,0.075-2.024,0.225c-0.701,0.15-1.376,0.5-2.025,1.05
			c-0.551,0.551-1.013,1.151-1.388,1.8c-0.375,0.65-0.562,1.475-0.562,2.475v113.924c0,0.85,0.199,1.613,0.6,2.288
			c0.399,0.675,0.9,1.237,1.5,1.688s1.249,0.799,1.949,1.05c0.7,0.25,1.351,0.375,1.95,0.375h17.176
			c1.898,0,3.299-0.525,4.199-1.575s1.35-2.325,1.35-3.825V136.46c1.352,1.5,2.725,3,4.125,4.5s3.012,2.875,4.838,4.125
			c1.824,1.25,3.912,2.263,6.264,3.037c2.35,0.774,5.148,1.162,8.398,1.162c6.85,0,13.164-1.274,18.938-3.824
			c5.775-2.551,10.75-6.038,14.926-10.463c4.174-4.425,7.438-9.638,9.787-15.638s3.525-12.449,3.525-19.349
			c0-6.949-1.176-13.412-3.525-19.388C590.87,74.648,587.606,69.448,583.433,65.022z M567.646,109.31
			c-1.051,2.9-2.525,5.413-4.426,7.537c-1.9,2.126-4.176,3.813-6.824,5.062c-2.65,1.251-5.576,1.875-8.775,1.875
			c-3.25,0-6.326-0.624-9.225-1.875c-2.9-1.249-5.426-2.937-7.576-5.062c-2.15-2.124-3.85-4.637-5.1-7.537
			c-1.25-2.899-1.875-6-1.875-9.299v-1.125c0.15-3.1,0.887-6.025,2.213-8.775c1.324-2.749,3.049-5.137,5.176-7.162
			c2.123-2.025,4.6-3.625,7.424-4.8c2.824-1.174,5.812-1.762,8.963-1.762c3.199,0,6.125,0.625,8.775,1.875
			c2.648,1.25,4.924,2.951,6.824,5.1c1.9,2.15,3.375,4.663,4.426,7.538c1.049,2.876,1.574,5.914,1.574,9.113
			C569.22,103.31,568.694,106.41,567.646,109.31z M479.147,52.31h-16.95c-0.75,0-1.414,0.075-1.988,0.225
			c-0.575,0.15-1.188,0.425-1.837,0.825c-0.65,0.451-1.138,1.102-1.462,1.953c-0.326,0.851-0.487,1.702-0.487,2.552v48.802
			c0,2.153-0.525,4.193-1.575,6.119c-1.05,1.928-2.388,3.605-4.013,5.031c-1.625,1.428-3.4,2.565-5.325,3.416
			c-1.925,0.851-3.788,1.276-5.587,1.276c-2.1,0-4.163-0.426-6.188-1.276c-2.025-0.851-3.838-2.015-5.438-3.491
			c-1.601-1.477-2.888-3.178-3.863-5.105c-0.975-1.927-1.462-3.967-1.462-6.119V57.641c0-2.103-0.401-3.516-1.2-4.242
			c-0.8-0.726-2.275-1.089-4.425-1.089h-17.325c-1.8,0-3.112,0.487-3.938,1.462c-0.825,0.975-1.237,2.413-1.237,4.312v49.125
			c0,5.75,0.9,11.163,2.7,16.237c1.8,5.075,4.337,9.513,7.612,13.312c3.274,3.8,7.237,6.8,11.888,9c4.65,2.199,9.825,3.3,15.525,3.3
			c3.949,0,7.45-0.586,10.5-1.757c3.049-1.172,5.674-2.618,7.875-4.338c2.2-1.721,4.012-3.565,5.438-5.535
			c1.425-1.969,2.512-3.727,3.262-5.272l2.325,9.573c0.199,0.748,0.45,1.471,0.75,2.169c0.3,0.699,0.675,1.322,1.125,1.871
			c0.45,0.548,1,0.985,1.65,1.31c0.649,0.326,1.425,0.487,2.325,0.487h11.325c0.649,0,1.337-0.074,2.062-0.225
			c0.725-0.15,1.412-0.499,2.062-1.05l-0.45,0.224c0.75-0.45,1.337-1.074,1.762-1.875c0.424-0.799,0.638-1.675,0.638-2.625V58.085
			c0-1.75-0.476-3.15-1.425-4.2C482.847,52.835,481.296,52.31,479.147,52.31z M802.019,53.21c-0.551-0.549-1.2-0.9-1.95-1.05
			s-1.4-0.225-1.95-0.225h-11.175c-1.001,0-1.775,0.063-2.325,0.188c-0.551,0.125-1.013,0.375-1.388,0.75s-0.725,0.95-1.05,1.725
			c-0.325,0.776-0.738,1.788-1.237,3.038l-2.925,9.075c-1.351-1.95-2.888-3.874-4.612-5.775c-1.726-1.899-3.65-3.6-5.775-5.1
			c-2.126-1.5-4.488-2.711-7.088-3.637c-2.6-0.925-5.45-1.388-8.55-1.388c-6.8,0-13.175,1.263-19.125,3.788
			c-5.95,2.525-11.126,6-15.524,10.425c-4.4,4.425-7.875,9.626-10.426,15.6c-2.55,5.976-3.824,12.438-3.824,19.388
			c0,4.6,0.574,9.012,1.725,13.237c1.149,4.226,2.787,8.163,4.912,11.812c2.125,3.65,4.662,6.963,7.613,9.938
			c2.949,2.976,6.236,5.525,9.862,7.65c3.624,2.125,7.524,3.763,11.7,4.912c4.174,1.149,8.537,1.725,13.087,1.725
			c2.55,0,4.95-0.438,7.2-1.312c2.25-0.874,4.337-1.961,6.263-3.262c1.924-1.3,3.687-2.712,5.287-4.238
			c1.6-1.524,3.075-2.962,4.425-4.312l2.176,5.625c0.3,0.852,0.587,1.639,0.862,2.363c0.274,0.725,0.611,1.338,1.013,1.837
			c0.399,0.501,0.924,0.889,1.574,1.163c0.649,0.275,1.5,0.412,2.551,0.412h14.774c0.55,0,1.2-0.075,1.95-0.225
			c0.75-0.15,1.399-0.5,1.95-1.051c0.699-0.449,1.2-1.062,1.5-1.837c0.3-0.774,0.45-1.587,0.45-2.438V57.485
			c0-0.9-0.15-1.699-0.45-2.4C803.219,54.385,802.718,53.761,802.019,53.21z M773.594,109.272c-1.2,2.876-2.863,5.362-4.988,7.462
			c-2.125,2.101-4.625,3.763-7.5,4.987c-2.875,1.227-5.988,1.838-9.337,1.838c-3.251,0-6.214-0.611-8.888-1.838
			c-2.676-1.225-4.963-2.887-6.862-4.987c-1.901-2.1-3.363-4.586-4.388-7.462c-1.025-2.875-1.537-5.963-1.537-9.262
			c0-3.199,0.512-6.25,1.537-9.15c1.024-2.899,2.486-5.449,4.388-7.65c1.899-2.2,4.187-3.938,6.862-5.212
			c2.674-1.275,5.637-1.913,8.888-1.913c3.349,0,6.462,0.638,9.337,1.913s5.375,3.013,7.5,5.212c2.125,2.201,3.788,4.751,4.988,7.65
			c1.199,2.9,1.8,5.951,1.8,9.15C775.394,103.31,774.793,106.397,773.594,109.272z M689.819,73.498
			c-2.051-3.325-4.5-6.387-7.351-9.188c-2.85-2.8-5.988-5.2-9.412-7.2c-3.426-1.999-7.088-3.549-10.987-4.65
			c-3.9-1.099-7.926-1.65-12.075-1.65c-4.551,0-8.876,0.6-12.975,1.8c-4.101,1.2-7.901,2.876-11.4,5.025
			c-3.5,2.15-6.663,4.738-9.487,7.762c-2.825,3.026-5.226,6.337-7.2,9.938c-1.976,3.6-3.5,7.462-4.575,11.587
			s-1.612,8.389-1.612,12.788c0,7.05,1.35,13.574,4.05,19.574s6.35,11.213,10.95,15.638c4.6,4.425,9.949,7.888,16.05,10.388
			c6.1,2.5,12.574,3.75,19.425,3.75c6.15,0,11.975-1.138,17.476-3.412c5.499-2.275,10.449-5.438,14.85-9.488
			c0.75-0.549,1.399-1.187,1.95-1.912c0.55-0.725,0.825-1.587,0.825-2.588c0-0.549-0.075-1.087-0.226-1.612
			c-0.149-0.524-0.5-1.112-1.05-1.763l-7.95-9c-0.851-0.85-1.612-1.5-2.287-1.949c-0.675-0.45-1.338-0.676-1.987-0.676
			c-0.65,0-1.264,0.163-1.838,0.488c-0.575,0.325-1.263,0.812-2.062,1.462c-0.899,0.9-2.088,1.763-3.562,2.588
			c-1.476,0.825-3.101,1.55-4.875,2.175c-1.775,0.626-3.612,1.125-5.513,1.5s-3.75,0.562-5.55,0.562c-2,0-4.125-0.274-6.375-0.825
			c-2.25-0.55-4.376-1.462-6.375-2.737c-2-1.275-3.763-2.987-5.287-5.138c-1.526-2.149-2.538-4.824-3.038-8.024h54
			c3.15,0,5.537-0.188,7.163-0.562c1.624-0.375,2.786-1.05,3.487-2.025c0.699-0.975,1.088-2.287,1.162-3.938
			c0.075-1.649,0.113-3.774,0.113-6.375c0-4-0.562-7.887-1.688-11.663C693.457,80.373,691.869,76.823,689.819,73.498z
			 M631.244,87.41c0.799-1.699,1.838-3.375,3.112-5.025c1.275-1.65,2.712-3.125,4.312-4.425c1.6-1.299,3.312-2.336,5.138-3.112
			c1.824-0.775,3.713-1.163,5.662-1.163c2.7,0,5.062,0.351,7.088,1.05c2.025,0.701,3.825,1.676,5.4,2.925
			c1.574,1.25,2.974,2.7,4.199,4.35c1.225,1.65,2.363,3.45,3.413,5.4H631.244z M867.043,56.66c-1.001-0.949-2.301-1.425-3.9-1.425
			h-12.524l0.074-23.625c0-1.75-0.312-3.162-0.938-4.237c-0.625-1.075-1.863-1.612-3.712-1.612h-0.638
			c-0.225,0-0.463,0.025-0.713,0.075l-17.024,5.925c-1.901,0.701-3.363,1.438-4.388,2.212c-1.025,0.776-1.537,1.938-1.537,3.487
			l-0.075,17.775h-5.476c-3.851,0-5.774,1.901-5.774,5.7V75.41c0,4.05,1.924,6.075,5.774,6.075h5.476l0.075,60.299
			c0,3.852,1.924,5.775,5.774,5.775h16.95c1.95,0,3.475-0.487,4.575-1.463c1.099-0.975,1.649-2.411,1.649-4.312l-0.074-60.299
			h12.524c1.6,0,2.899-0.487,3.9-1.462c0.999-0.975,1.5-2.512,1.5-4.612V60.935C868.543,59.036,868.042,57.61,867.043,56.66z"/>
	</g>
</g>
<g>
	<g>
		<path fill="#E74C3C" d="M203.375,97.985c-0.851-0.6-1.65-0.9-2.4-0.9h-20.4c-1.1,0-1.925,0.313-2.475,0.938
			c-0.551,0.626-0.825,1.414-0.825,2.363v19.649c-1.95,0.401-3.788,0.726-5.513,0.976c-1.725,0.251-3.463,0.375-5.212,0.375
			c-4.151,0-7.95-0.774-11.4-2.325c-3.45-1.549-6.413-3.662-8.888-6.338c-2.475-2.674-4.413-5.812-5.812-9.412
			c-1.4-3.6-2.1-7.449-2.1-11.549c0-4.1,0.7-7.962,2.1-11.588c1.399-3.625,3.337-6.787,5.812-9.487s5.438-4.837,8.888-6.413
			c3.45-1.575,7.249-2.362,11.4-2.362c3.3,0,6.399,0.5,9.3,1.5c2.899,1,5.625,2.4,8.175,4.2c1.099,0.701,1.975,0.913,2.625,0.638
			c0.649-0.274,1.299-0.812,1.95-1.612l12.15-17.55c0.649-1.05,0.75-1.987,0.3-2.812c-0.45-0.825-1.101-1.487-1.95-1.987
			c-4.7-3.15-9.712-5.562-15.037-7.238c-5.325-1.674-10.988-2.512-16.988-2.512c-5.3,0-10.387,0.688-15.262,2.062
			c-2.749,0.776-5.388,1.746-7.939,2.871c1.201,4.248,0.254,8.817-2.845,11.726c-1.426,1.339-3.133,2.155-4.936,2.483
			c0.31,3.289-0.431,6.39-2.368,8.732c-2.302,2.785-5.839,3.969-9.688,3.633c-0.614,1.524-1.458,2.969-2.543,4.278
			c-2.495,3.008-5.833,4.799-9.364,5.341c-0.106,0.356-0.231,0.701-0.33,1.06c-1.35,4.875-2.025,9.963-2.025,15.262
			c0,5.301,0.675,10.387,2.025,15.262s3.274,9.426,5.775,13.65c2.5,4.226,5.487,8.075,8.962,11.55
			c3.475,3.476,7.337,6.463,11.588,8.962c4.249,2.501,8.812,4.426,13.688,5.775s9.962,2.025,15.262,2.025
			c3,0,6.087-0.188,9.263-0.562c3.174-0.375,6.312-0.938,9.413-1.688c3.1-0.75,6.075-1.699,8.925-2.851
			c2.85-1.149,5.449-2.524,7.8-4.125c1.45-0.85,2.175-1.95,2.175-3.3v-36.299C204.65,99.385,204.225,98.585,203.375,97.985z
			 M289.174,60.335c-2.201-1.6-4.238-3-6.113-4.2c-1.875-1.2-3.763-2.187-5.662-2.963c-1.901-0.774-3.913-1.361-6.038-1.762
			c-2.126-0.4-4.538-0.6-7.238-0.6c-2.6,0-4.85,0.5-6.75,1.5c-1.9,1.001-3.625,2.276-5.175,3.825
			c-1.55,1.55-3.013,3.238-4.388,5.062c-1.375,1.826-2.812,3.562-4.312,5.212c-0.101-0.25-0.312-0.788-0.637-1.613
			c-0.326-0.825-0.664-1.699-1.013-2.625c-0.35-0.924-0.675-1.774-0.975-2.55c-0.3-0.774-0.5-1.262-0.6-1.462
			c-0.401-0.7-0.738-1.399-1.013-2.1c-0.275-0.7-0.6-1.324-0.975-1.875c-0.375-0.55-0.838-1-1.387-1.35
			c-0.551-0.349-1.301-0.525-2.25-0.525h-11.325c-1.4,0-2.75,0.425-4.05,1.275c-0.551,0.45-1.013,1.063-1.388,1.837
			c-0.375,0.776-0.562,1.588-0.562,2.438v83.924c0,3.852,1.95,5.775,5.85,5.775h16.875c2.149,0,3.687-0.487,4.612-1.463
			c0.925-0.975,1.388-2.411,1.388-4.312V87.485c1.05-1.699,2.1-3.25,3.15-4.65c1.05-1.399,2.175-2.599,3.375-3.6
			c1.2-1,2.537-1.774,4.013-2.325c1.474-0.55,3.188-0.825,5.137-0.825c2.85,0,5.387,0.513,7.613,1.538
			c2.224,1.025,4.412,2.587,6.562,4.688c1.699,0.8,3.274,1.025,4.725,0.675c1.45-0.349,2.674-1.275,3.675-2.775l6.825-11.625
			C293.273,64.936,292.624,62.186,289.174,60.335z M479.147,52.31h-16.95c-0.75,0-1.414,0.075-1.988,0.225
			c-0.575,0.15-1.188,0.425-1.837,0.825c-0.65,0.451-1.138,1.102-1.462,1.953c-0.326,0.851-0.487,1.702-0.487,2.552v48.802
			c0,2.153-0.525,4.193-1.575,6.119c-1.05,1.928-2.388,3.605-4.013,5.031c-1.625,1.428-3.4,2.565-5.325,3.416
			c-1.925,0.851-3.788,1.276-5.587,1.276c-2.1,0-4.163-0.426-6.188-1.276c-2.025-0.851-3.838-2.015-5.438-3.491
			c-1.601-1.477-2.888-3.178-3.863-5.105c-0.975-1.927-1.462-3.967-1.462-6.119V57.641c0-2.103-0.401-3.516-1.2-4.242
			c-0.8-0.726-2.275-1.089-4.425-1.089h-17.325c-1.8,0-3.112,0.487-3.938,1.462c-0.825,0.975-1.237,2.413-1.237,4.312v49.125
			c0,5.75,0.9,11.163,2.7,16.237c1.8,5.075,4.337,9.513,7.612,13.312c3.274,3.8,7.237,6.8,11.888,9c4.65,2.199,9.825,3.3,15.525,3.3
			c3.949,0,7.45-0.586,10.5-1.757c3.049-1.172,5.674-2.618,7.875-4.338c2.2-1.721,4.012-3.565,5.438-5.535
			c1.425-1.969,2.512-3.727,3.262-5.272l2.325,9.573c0.199,0.748,0.45,1.471,0.75,2.169c0.3,0.699,0.675,1.322,1.125,1.871
			c0.45,0.548,1,0.985,1.65,1.31c0.649,0.326,1.425,0.487,2.325,0.487h11.325c0.649,0,1.337-0.074,2.062-0.225
			c0.725-0.15,1.412-0.499,2.062-1.05l-0.45,0.224c0.75-0.45,1.337-1.074,1.762-1.875c0.424-0.799,0.638-1.675,0.638-2.625V58.085
			c0-1.75-0.476-3.15-1.425-4.2C482.847,52.835,481.296,52.31,479.147,52.31z M593.22,80.623c-2.35-5.974-5.613-11.175-9.787-15.6
			c-4.176-4.425-9.15-7.899-14.926-10.425c-5.773-2.524-12.088-3.788-18.938-3.788c-3.898,0-7.199,0.5-9.898,1.5
			c-2.701,1.001-5.025,2.263-6.977,3.788c-1.949,1.526-3.637,3.225-5.062,5.1c-1.424,1.875-2.838,3.712-4.236,5.512l-3.15-9.075
			c-0.25-0.799-0.514-1.538-0.787-2.213c-0.275-0.675-0.613-1.275-1.013-1.8c-0.401-0.525-0.913-0.938-1.538-1.237
			c-0.626-0.3-1.413-0.45-2.362-0.45H503.22c-0.65,0-1.325,0.075-2.024,0.225c-0.701,0.15-1.376,0.5-2.025,1.05
			c-0.551,0.551-1.013,1.151-1.388,1.8c-0.375,0.65-0.562,1.475-0.562,2.475v113.924c0,0.85,0.199,1.613,0.6,2.288
			c0.399,0.675,0.9,1.237,1.5,1.688s1.249,0.799,1.949,1.05c0.7,0.25,1.351,0.375,1.95,0.375h17.176
			c1.898,0,3.299-0.525,4.199-1.575s1.35-2.325,1.35-3.825V136.46c1.352,1.5,2.725,3,4.125,4.5s3.012,2.875,4.838,4.125
			c1.824,1.25,3.912,2.263,6.264,3.037c2.35,0.774,5.148,1.162,8.398,1.162c6.85,0,13.164-1.274,18.938-3.824
			c5.775-2.551,10.75-6.038,14.926-10.463c4.174-4.425,7.438-9.638,9.787-15.638s3.525-12.449,3.525-19.349
			C596.745,93.061,595.569,86.598,593.22,80.623z M567.646,109.31c-1.051,2.9-2.525,5.413-4.426,7.537
			c-1.9,2.126-4.176,3.813-6.824,5.062c-2.65,1.251-5.576,1.875-8.775,1.875c-3.25,0-6.326-0.624-9.225-1.875
			c-2.9-1.249-5.426-2.937-7.576-5.062c-2.15-2.124-3.85-4.637-5.1-7.537c-1.25-2.899-1.875-6-1.875-9.299v-1.125
			c0.15-3.1,0.887-6.025,2.213-8.775c1.324-2.749,3.049-5.137,5.176-7.162c2.123-2.025,4.6-3.625,7.424-4.8
			c2.824-1.174,5.812-1.762,8.963-1.762c3.199,0,6.125,0.625,8.775,1.875c2.648,1.25,4.924,2.951,6.824,5.1
			c1.9,2.15,3.375,4.663,4.426,7.538c1.049,2.876,1.574,5.914,1.574,9.113C569.22,103.31,568.694,106.41,567.646,109.31z
			 M371.56,65.022c-4.425-4.425-9.626-7.899-15.6-10.425c-5.975-2.524-12.363-3.788-19.163-3.788c-4.601,0-9.013,0.575-13.237,1.725
			c-4.226,1.151-8.163,2.775-11.812,4.875c-3.65,2.1-6.963,4.638-9.938,7.612c-2.976,2.976-5.525,6.275-7.65,9.9
			c-2.126,3.626-3.776,7.563-4.95,11.812c-1.175,4.25-1.762,8.676-1.762,13.275c0,4.6,0.587,9.012,1.762,13.237
			c1.174,4.226,2.824,8.163,4.95,11.812c2.125,3.65,4.674,6.963,7.65,9.938c2.974,2.976,6.287,5.525,9.938,7.65
			c3.649,2.125,7.587,3.763,11.812,4.912c4.225,1.149,8.637,1.725,13.237,1.725c4.549,0,8.912-0.575,13.088-1.725
			c4.174-1.149,8.087-2.787,11.737-4.912c3.649-2.125,6.962-4.675,9.938-7.65c2.974-2.975,5.524-6.287,7.65-9.938
			c2.125-3.649,3.775-7.587,4.95-11.812c1.174-4.225,1.762-8.637,1.762-13.237c0-6.949-1.288-13.412-3.862-19.388
			C379.484,74.648,375.985,69.448,371.56,65.022z M356.26,109.272c-0.975,2.876-2.375,5.362-4.2,7.462
			c-1.826,2.101-4.05,3.763-6.675,4.987c-2.625,1.227-5.563,1.838-8.812,1.838c-3.351,0-6.363-0.611-9.038-1.838
			c-2.675-1.225-4.95-2.887-6.825-4.987c-1.875-2.1-3.326-4.586-4.35-7.462c-1.025-2.875-1.537-5.963-1.537-9.262
			c0-3.199,0.512-6.25,1.537-9.15c1.024-2.899,2.475-5.449,4.35-7.65c1.875-2.2,4.15-3.938,6.825-5.212
			c2.674-1.275,5.687-1.913,9.038-1.913c3.25,0,6.188,0.638,8.812,1.913s4.849,3.013,6.675,5.212c1.825,2.201,3.225,4.751,4.2,7.65
			c0.975,2.9,1.462,5.951,1.462,9.15C357.723,103.31,357.235,106.397,356.26,109.272z"/>
	</g>
</g>
</svg>
